<svg width="234" height="56" viewBox="0 0 234 56" fill="none" xmlns="http://www.w3.org/2000/svg">
<rect width="234" height="56" rx="4" fill="#DB4444"/>
<path d="M58.784 22.88L54.608 34H52.496L48.304 22.88H50.256L53.552 32.128L56.864 22.88H58.784ZM61.2374 24.016C60.9067 24.016 60.6294 23.904 60.4054 23.68C60.1814 23.456 60.0694 23.1787 60.0694 22.848C60.0694 22.5173 60.1814 22.24 60.4054 22.016C60.6294 21.792 60.9067 21.68 61.2374 21.68C61.5574 21.68 61.8294 21.792 62.0534 22.016C62.2774 22.24 62.3894 22.5173 62.3894 22.848C62.3894 23.1787 62.2774 23.456 62.0534 23.68C61.8294 23.904 61.5574 24.016 61.2374 24.016ZM62.1334 25.184V34H60.3094V25.184H62.1334ZM72.6081 29.376C72.6081 29.7067 72.5868 30.0053 72.5441 30.272H65.8081C65.8615 30.976 66.1228 31.5413 66.5921 31.968C67.0615 32.3947 67.6375 32.608 68.3201 32.608C69.3015 32.608 69.9948 32.1973 70.4001 31.376H72.3681C72.1015 32.1867 71.6161 32.8533 70.9121 33.376C70.2188 33.888 69.3548 34.144 68.3201 34.144C67.4775 34.144 66.7201 33.9573 66.0481 33.584C65.3868 33.2 64.8641 32.6667 64.4801 31.984C64.1068 31.2907 63.9201 30.4907 63.9201 29.584C63.9201 28.6773 64.1015 27.8827 64.4641 27.2C64.8375 26.5067 65.3548 25.9733 66.0161 25.6C66.6881 25.2267 67.4561 25.04 68.3201 25.04C69.1521 25.04 69.8935 25.2213 70.5441 25.584C71.1948 25.9467 71.7015 26.4587 72.0641 27.12C72.4268 27.7707 72.6081 28.5227 72.6081 29.376ZM70.7041 28.8C70.6935 28.128 70.4535 27.5893 69.9841 27.184C69.5148 26.7787 68.9335 26.576 68.2401 26.576C67.6108 26.576 67.0721 26.7787 66.6241 27.184C66.1761 27.5787 65.9095 28.1173 65.8241 28.8H70.7041ZM86.2431 25.184L83.5071 34H81.5871L79.8111 27.488L78.0351 34H76.1151L73.3631 25.184H75.2191L77.0591 32.272L78.9311 25.184H80.8351L82.6271 32.24L84.4511 25.184H86.2431ZM98.4665 31.728H93.8105L93.0105 34H91.1065L95.0905 22.864H97.2025L101.187 34H99.2665L98.4665 31.728ZM97.9545 30.24L96.1465 25.072L94.3225 30.24H97.9545ZM104.743 22.16V34H102.919V22.16H104.743ZM108.962 22.16V34H107.138V22.16H108.962ZM123.289 26.192C123.289 26.7573 123.155 27.2907 122.889 27.792C122.622 28.2933 122.195 28.704 121.609 29.024C121.022 29.3333 120.27 29.488 119.353 29.488H117.337V34H115.513V22.88H119.353C120.206 22.88 120.926 23.0293 121.513 23.328C122.11 23.616 122.553 24.0107 122.841 24.512C123.139 25.0133 123.289 25.5733 123.289 26.192ZM119.353 28C120.046 28 120.563 27.8453 120.905 27.536C121.246 27.216 121.417 26.768 121.417 26.192C121.417 24.976 120.729 24.368 119.353 24.368H117.337V28H119.353ZM126.852 26.464C127.119 26.016 127.471 25.6693 127.908 25.424C128.356 25.168 128.884 25.04 129.492 25.04V26.928H129.028C128.313 26.928 127.769 27.1093 127.396 27.472C127.033 27.8347 126.852 28.464 126.852 29.36V34H125.028V25.184H126.852V26.464ZM134.993 34.144C134.161 34.144 133.409 33.9573 132.737 33.584C132.065 33.2 131.537 32.6667 131.153 31.984C130.769 31.2907 130.577 30.4907 130.577 29.584C130.577 28.688 130.774 27.8933 131.169 27.2C131.563 26.5067 132.102 25.9733 132.785 25.6C133.467 25.2267 134.23 25.04 135.073 25.04C135.915 25.04 136.678 25.2267 137.361 25.6C138.043 25.9733 138.582 26.5067 138.977 27.2C139.371 27.8933 139.569 28.688 139.569 29.584C139.569 30.48 139.366 31.2747 138.961 31.968C138.555 32.6613 138.001 33.2 137.297 33.584C136.603 33.9573 135.835 34.144 134.993 34.144ZM134.993 32.56C135.462 32.56 135.899 32.448 136.305 32.224C136.721 32 137.057 31.664 137.313 31.216C137.569 30.768 137.697 30.224 137.697 29.584C137.697 28.944 137.574 28.4053 137.329 27.968C137.083 27.52 136.758 27.184 136.353 26.96C135.947 26.736 135.51 26.624 135.041 26.624C134.571 26.624 134.134 26.736 133.729 26.96C133.334 27.184 133.019 27.52 132.785 27.968C132.55 28.4053 132.433 28.944 132.433 29.584C132.433 30.5333 132.673 31.2693 133.153 31.792C133.643 32.304 134.257 32.56 134.993 32.56ZM140.764 29.552C140.764 28.6667 140.945 27.8827 141.308 27.2C141.681 26.5173 142.183 25.9893 142.812 25.616C143.452 25.232 144.161 25.04 144.94 25.04C145.516 25.04 146.081 25.168 146.636 25.424C147.201 25.6693 147.649 26 147.98 26.416V22.16H149.82V34H147.98V32.672C147.681 33.0987 147.265 33.4507 146.732 33.728C146.209 34.0053 145.607 34.144 144.924 34.144C144.156 34.144 143.452 33.952 142.812 33.568C142.183 33.1733 141.681 32.6293 141.308 31.936C140.945 31.232 140.764 30.4373 140.764 29.552ZM147.98 29.584C147.98 28.976 147.852 28.448 147.596 28C147.351 27.552 147.025 27.2107 146.62 26.976C146.215 26.7413 145.777 26.624 145.308 26.624C144.839 26.624 144.401 26.7413 143.996 26.976C143.591 27.2 143.26 27.536 143.004 27.984C142.759 28.4213 142.636 28.944 142.636 29.552C142.636 30.16 142.759 30.6933 143.004 31.152C143.26 31.6107 143.591 31.9627 143.996 32.208C144.412 32.4427 144.849 32.56 145.308 32.56C145.777 32.56 146.215 32.4427 146.62 32.208C147.025 31.9733 147.351 31.632 147.596 31.184C147.852 30.7253 147.98 30.192 147.98 29.584ZM160.2 25.184V34H158.376V32.96C158.088 33.3227 157.709 33.6107 157.24 33.824C156.781 34.0267 156.29 34.128 155.768 34.128C155.074 34.128 154.45 33.984 153.896 33.696C153.352 33.408 152.92 32.9813 152.6 32.416C152.29 31.8507 152.136 31.168 152.136 30.368V25.184H153.944V30.096C153.944 30.8853 154.141 31.4933 154.536 31.92C154.93 32.336 155.469 32.544 156.152 32.544C156.834 32.544 157.373 32.336 157.768 31.92C158.173 31.4933 158.376 30.8853 158.376 30.096V25.184H160.2ZM161.998 29.584C161.998 28.6773 162.18 27.8827 162.542 27.2C162.916 26.5067 163.428 25.9733 164.078 25.6C164.729 25.2267 165.476 25.04 166.318 25.04C167.385 25.04 168.265 25.296 168.958 25.808C169.662 26.3093 170.137 27.0293 170.382 27.968H168.414C168.254 27.5307 167.998 27.1893 167.646 26.944C167.294 26.6987 166.852 26.576 166.318 26.576C165.572 26.576 164.974 26.8427 164.526 27.376C164.089 27.8987 163.87 28.6347 163.87 29.584C163.87 30.5333 164.089 31.2747 164.526 31.808C164.974 32.3413 165.572 32.608 166.318 32.608C167.374 32.608 168.073 32.144 168.414 31.216H170.382C170.126 32.112 169.646 32.8267 168.942 33.36C168.238 33.8827 167.364 34.144 166.318 34.144C165.476 34.144 164.729 33.9573 164.078 33.584C163.428 33.2 162.916 32.6667 162.542 31.984C162.18 31.2907 161.998 30.4907 161.998 29.584ZM174.328 26.672V31.552C174.328 31.8827 174.403 32.1227 174.552 32.272C174.712 32.4107 174.979 32.48 175.352 32.48H176.472V34H175.032C174.211 34 173.581 33.808 173.144 33.424C172.707 33.04 172.488 32.416 172.488 31.552V26.672H171.448V25.184H172.488V22.992H174.328V25.184H176.472V26.672H174.328ZM181.353 34.144C180.66 34.144 180.036 34.0213 179.481 33.776C178.937 33.52 178.505 33.1787 178.185 32.752C177.865 32.3147 177.694 31.8293 177.673 31.296H179.561C179.593 31.6693 179.769 31.984 180.089 32.24C180.42 32.4853 180.83 32.608 181.321 32.608C181.833 32.608 182.228 32.512 182.505 32.32C182.793 32.1173 182.937 31.8613 182.937 31.552C182.937 31.2213 182.777 30.976 182.457 30.816C182.148 30.656 181.652 30.48 180.969 30.288C180.308 30.1067 179.769 29.9307 179.353 29.76C178.937 29.5893 178.574 29.328 178.265 28.976C177.966 28.624 177.817 28.16 177.817 27.584C177.817 27.1147 177.956 26.688 178.233 26.304C178.51 25.9093 178.905 25.6 179.417 25.376C179.94 25.152 180.537 25.04 181.209 25.04C182.212 25.04 183.017 25.296 183.625 25.808C184.244 26.3093 184.574 26.9973 184.617 27.872H182.793C182.761 27.4773 182.601 27.1627 182.313 26.928C182.025 26.6933 181.636 26.576 181.145 26.576C180.665 26.576 180.297 26.6667 180.041 26.848C179.785 27.0293 179.657 27.2693 179.657 27.568C179.657 27.8027 179.742 28 179.913 28.16C180.084 28.32 180.292 28.448 180.537 28.544C180.782 28.6293 181.145 28.7413 181.625 28.88C182.265 29.0507 182.788 29.2267 183.193 29.408C183.609 29.5787 183.966 29.8347 184.265 30.176C184.564 30.5173 184.718 30.9707 184.729 31.536C184.729 32.0373 184.59 32.4853 184.313 32.88C184.036 33.2747 183.641 33.584 183.129 33.808C182.628 34.032 182.036 34.144 181.353 34.144Z" fill="#FAFAFA"/>
</svg>
