<svg width="826" height="483" viewBox="0 0 826 483" fill="none" xmlns="http://www.w3.org/2000/svg">
<g filter="url(#filter0_d_210_4481)">
<rect x="13" y="12" width="800" height="457" rx="4" fill="white"/>
<rect x="44" y="52" width="235" height="50" rx="4" fill="#F5F5F5"/>
<g opacity="0.5">
<path d="M69.04 71.848L65.408 78.792V83H63.952V78.792L60.304 71.848H61.92L64.672 77.496L67.424 71.848H69.04ZM74.3998 83.144C73.5784 83.144 72.8318 82.9573 72.1598 82.584C71.4984 82.2107 70.9758 81.6827 70.5918 81C70.2184 80.3067 70.0318 79.5067 70.0318 78.6C70.0318 77.704 70.2238 76.9147 70.6078 76.232C71.0024 75.5387 71.5358 75.0107 72.2078 74.648C72.8798 74.2747 73.6318 74.088 74.4638 74.088C75.2958 74.088 76.0478 74.2747 76.7198 74.648C77.3918 75.0107 77.9198 75.5333 78.3038 76.216C78.6984 76.8987 78.8958 77.6933 78.8958 78.6C78.8958 79.5067 78.6931 80.3067 78.2878 81C77.8931 81.6827 77.3544 82.2107 76.6718 82.584C75.9891 82.9573 75.2318 83.144 74.3998 83.144ZM74.3998 81.864C74.9224 81.864 75.4131 81.7413 75.8718 81.496C76.3304 81.2507 76.6984 80.8827 76.9758 80.392C77.2638 79.9013 77.4078 79.304 77.4078 78.6C77.4078 77.896 77.2691 77.2987 76.9918 76.808C76.7144 76.3173 76.3518 75.9547 75.9038 75.72C75.4558 75.4747 74.9704 75.352 74.4478 75.352C73.9144 75.352 73.4238 75.4747 72.9758 75.72C72.5384 75.9547 72.1864 76.3173 71.9198 76.808C71.6531 77.2987 71.5198 77.896 71.5198 78.6C71.5198 79.3147 71.6478 79.9173 71.9038 80.408C72.1704 80.8987 72.5224 81.2667 72.9598 81.512C73.3971 81.7467 73.8771 81.864 74.3998 81.864ZM88.5861 74.232V83H87.1301V81.704C86.8528 82.152 86.4635 82.504 85.9621 82.76C85.4715 83.0053 84.9275 83.128 84.3301 83.128C83.6475 83.128 83.0341 82.9893 82.4901 82.712C81.9461 82.424 81.5141 81.9973 81.1941 81.432C80.8848 80.8667 80.7301 80.1787 80.7301 79.368V74.232H82.1701V79.176C82.1701 80.04 82.3888 80.7067 82.8261 81.176C83.2635 81.6347 83.8608 81.864 84.6181 81.864C85.3968 81.864 86.0101 81.624 86.4581 81.144C86.9061 80.664 87.1301 79.9653 87.1301 79.048V74.232H88.5861ZM92.5005 75.656C92.7565 75.1547 93.1192 74.7653 93.5885 74.488C94.0685 74.2107 94.6498 74.072 95.3325 74.072V75.576H94.9485C93.3165 75.576 92.5005 76.4613 92.5005 78.232V83H91.0445V74.232H92.5005V75.656ZM110.047 83H108.591L102.735 74.12V83H101.279V71.832H102.735L108.591 80.696V71.832H110.047V83ZM111.985 78.584C111.985 77.688 112.166 76.904 112.529 76.232C112.892 75.5493 113.388 75.0213 114.017 74.648C114.657 74.2747 115.366 74.088 116.145 74.088C116.913 74.088 117.58 74.2533 118.145 74.584C118.71 74.9147 119.132 75.3307 119.409 75.832V74.232H120.881V83H119.409V81.368C119.121 81.88 118.689 82.3067 118.113 82.648C117.548 82.9787 116.886 83.144 116.129 83.144C115.35 83.144 114.646 82.952 114.017 82.568C113.388 82.184 112.892 81.6453 112.529 80.952C112.166 80.2587 111.985 79.4693 111.985 78.584ZM119.409 78.6C119.409 77.9387 119.276 77.3627 119.009 76.872C118.742 76.3813 118.38 76.008 117.921 75.752C117.473 75.4853 116.977 75.352 116.433 75.352C115.889 75.352 115.393 75.48 114.945 75.736C114.497 75.992 114.14 76.3653 113.873 76.856C113.606 77.3467 113.473 77.9227 113.473 78.584C113.473 79.256 113.606 79.8427 113.873 80.344C114.14 80.8347 114.497 81.2133 114.945 81.48C115.393 81.736 115.889 81.864 116.433 81.864C116.977 81.864 117.473 81.736 117.921 81.48C118.38 81.2133 118.742 80.8347 119.009 80.344C119.276 79.8427 119.409 79.2613 119.409 78.6ZM133.885 74.072C134.568 74.072 135.176 74.216 135.709 74.504C136.243 74.7813 136.664 75.2027 136.973 75.768C137.283 76.3333 137.437 77.0213 137.437 77.832V83H135.997V78.04C135.997 77.1653 135.779 76.4987 135.341 76.04C134.915 75.5707 134.333 75.336 133.597 75.336C132.84 75.336 132.237 75.5813 131.789 76.072C131.341 76.552 131.117 77.2507 131.117 78.168V83H129.677V78.04C129.677 77.1653 129.459 76.4987 129.021 76.04C128.595 75.5707 128.013 75.336 127.277 75.336C126.52 75.336 125.917 75.5813 125.469 76.072C125.021 76.552 124.797 77.2507 124.797 78.168V83H123.341V74.232H124.797V75.496C125.085 75.0373 125.469 74.6853 125.949 74.44C126.44 74.1947 126.979 74.072 127.565 74.072C128.301 74.072 128.952 74.2373 129.517 74.568C130.083 74.8987 130.504 75.384 130.781 76.024C131.027 75.4053 131.432 74.9253 131.997 74.584C132.563 74.2427 133.192 74.072 133.885 74.072ZM147.826 78.28C147.826 78.5573 147.81 78.8507 147.778 79.16H140.77C140.823 80.024 141.116 80.7013 141.65 81.192C142.194 81.672 142.85 81.912 143.618 81.912C144.247 81.912 144.77 81.768 145.186 81.48C145.612 81.1813 145.911 80.7867 146.082 80.296H147.65C147.415 81.1387 146.946 81.8267 146.242 82.36C145.538 82.8827 144.663 83.144 143.618 83.144C142.786 83.144 142.039 82.9573 141.378 82.584C140.727 82.2107 140.215 81.6827 139.842 81C139.468 80.3067 139.282 79.5067 139.282 78.6C139.282 77.6933 139.463 76.8987 139.826 76.216C140.188 75.5333 140.695 75.0107 141.346 74.648C142.007 74.2747 142.764 74.088 143.618 74.088C144.45 74.088 145.186 74.2693 145.826 74.632C146.466 74.9947 146.956 75.496 147.298 76.136C147.65 76.7653 147.826 77.48 147.826 78.28ZM146.322 77.976C146.322 77.4213 146.199 76.9467 145.954 76.552C145.708 76.1467 145.372 75.8427 144.946 75.64C144.53 75.4267 144.066 75.32 143.554 75.32C142.818 75.32 142.188 75.5547 141.666 76.024C141.154 76.4933 140.86 77.144 140.786 77.976H146.322Z" fill="black"/>
<path d="M158.973 72.28L159.549 73.32L157.325 74.248L159.565 75.16L158.957 76.232L157.021 74.824L157.277 77.24H156.077L156.317 74.824L154.381 76.248L153.757 75.16L155.981 74.232L153.757 73.336L154.349 72.264L156.333 73.688L156.077 71.256H157.293L157.021 73.688L158.973 72.28Z" fill="#DB4444"/>
</g>
<rect x="295" y="52" width="235" height="50" rx="4" fill="#F5F5F5"/>
<g opacity="0.5">
<path d="M320.04 71.848L316.408 78.792V83H314.952V78.792L311.304 71.848H312.92L315.672 77.496L318.424 71.848H320.04ZM325.4 83.144C324.578 83.144 323.832 82.9573 323.16 82.584C322.498 82.2107 321.976 81.6827 321.592 81C321.218 80.3067 321.032 79.5067 321.032 78.6C321.032 77.704 321.224 76.9147 321.608 76.232C322.002 75.5387 322.536 75.0107 323.208 74.648C323.88 74.2747 324.632 74.088 325.464 74.088C326.296 74.088 327.048 74.2747 327.72 74.648C328.392 75.0107 328.92 75.5333 329.304 76.216C329.698 76.8987 329.896 77.6933 329.896 78.6C329.896 79.5067 329.693 80.3067 329.288 81C328.893 81.6827 328.354 82.2107 327.672 82.584C326.989 82.9573 326.232 83.144 325.4 83.144ZM325.4 81.864C325.922 81.864 326.413 81.7413 326.872 81.496C327.33 81.2507 327.698 80.8827 327.976 80.392C328.264 79.9013 328.408 79.304 328.408 78.6C328.408 77.896 328.269 77.2987 327.992 76.808C327.714 76.3173 327.352 75.9547 326.904 75.72C326.456 75.4747 325.97 75.352 325.448 75.352C324.914 75.352 324.424 75.4747 323.976 75.72C323.538 75.9547 323.186 76.3173 322.92 76.808C322.653 77.2987 322.52 77.896 322.52 78.6C322.52 79.3147 322.648 79.9173 322.904 80.408C323.17 80.8987 323.522 81.2667 323.96 81.512C324.397 81.7467 324.877 81.864 325.4 81.864ZM339.586 74.232V83H338.13V81.704C337.853 82.152 337.463 82.504 336.962 82.76C336.471 83.0053 335.927 83.128 335.33 83.128C334.647 83.128 334.034 82.9893 333.49 82.712C332.946 82.424 332.514 81.9973 332.194 81.432C331.885 80.8667 331.73 80.1787 331.73 79.368V74.232H333.17V79.176C333.17 80.04 333.389 80.7067 333.826 81.176C334.263 81.6347 334.861 81.864 335.618 81.864C336.397 81.864 337.01 81.624 337.458 81.144C337.906 80.664 338.13 79.9653 338.13 79.048V74.232H339.586ZM343.501 75.656C343.757 75.1547 344.119 74.7653 344.589 74.488C345.069 74.2107 345.65 74.072 346.333 74.072V75.576H345.949C344.317 75.576 343.501 76.4613 343.501 78.232V83H342.045V74.232H343.501V75.656ZM353.735 73.032V76.76H357.799V77.96H353.735V81.8H358.279V83H352.279V71.832H358.279V73.032H353.735ZM371.026 74.072C371.709 74.072 372.317 74.216 372.85 74.504C373.383 74.7813 373.805 75.2027 374.114 75.768C374.423 76.3333 374.578 77.0213 374.578 77.832V83H373.138V78.04C373.138 77.1653 372.919 76.4987 372.482 76.04C372.055 75.5707 371.474 75.336 370.738 75.336C369.981 75.336 369.378 75.5813 368.93 76.072C368.482 76.552 368.258 77.2507 368.258 78.168V83H366.818V78.04C366.818 77.1653 366.599 76.4987 366.162 76.04C365.735 75.5707 365.154 75.336 364.418 75.336C363.661 75.336 363.058 75.5813 362.61 76.072C362.162 76.552 361.938 77.2507 361.938 78.168V83H360.482V74.232H361.938V75.496C362.226 75.0373 362.61 74.6853 363.09 74.44C363.581 74.1947 364.119 74.072 364.706 74.072C365.442 74.072 366.093 74.2373 366.658 74.568C367.223 74.8987 367.645 75.384 367.922 76.024C368.167 75.4053 368.573 74.9253 369.138 74.584C369.703 74.2427 370.333 74.072 371.026 74.072ZM376.422 78.584C376.422 77.688 376.604 76.904 376.966 76.232C377.329 75.5493 377.825 75.0213 378.454 74.648C379.094 74.2747 379.804 74.088 380.582 74.088C381.35 74.088 382.017 74.2533 382.582 74.584C383.148 74.9147 383.569 75.3307 383.846 75.832V74.232H385.318V83H383.846V81.368C383.558 81.88 383.126 82.3067 382.55 82.648C381.985 82.9787 381.324 83.144 380.566 83.144C379.788 83.144 379.084 82.952 378.454 82.568C377.825 82.184 377.329 81.6453 376.966 80.952C376.604 80.2587 376.422 79.4693 376.422 78.584ZM383.846 78.6C383.846 77.9387 383.713 77.3627 383.446 76.872C383.18 76.3813 382.817 76.008 382.358 75.752C381.91 75.4853 381.414 75.352 380.87 75.352C380.326 75.352 379.83 75.48 379.382 75.736C378.934 75.992 378.577 76.3653 378.31 76.856C378.044 77.3467 377.91 77.9227 377.91 78.584C377.91 79.256 378.044 79.8427 378.31 80.344C378.577 80.8347 378.934 81.2133 379.382 81.48C379.83 81.736 380.326 81.864 380.87 81.864C381.414 81.864 381.91 81.736 382.358 81.48C382.817 81.2133 383.18 80.8347 383.446 80.344C383.713 79.8427 383.846 79.2613 383.846 78.6ZM388.531 72.808C388.254 72.808 388.019 72.712 387.827 72.52C387.635 72.328 387.539 72.0933 387.539 71.816C387.539 71.5387 387.635 71.304 387.827 71.112C388.019 70.92 388.254 70.824 388.531 70.824C388.798 70.824 389.022 70.92 389.203 71.112C389.395 71.304 389.491 71.5387 389.491 71.816C389.491 72.0933 389.395 72.328 389.203 72.52C389.022 72.712 388.798 72.808 388.531 72.808ZM389.235 74.232V83H387.779V74.232H389.235ZM393.172 71.16V83H391.716V71.16H393.172Z" fill="black"/>
<path d="M404.88 72.28L405.456 73.32L403.232 74.248L405.472 75.16L404.864 76.232L402.928 74.824L403.184 77.24H401.984L402.224 74.824L400.288 76.248L399.664 75.16L401.888 74.232L399.664 73.336L400.256 72.264L402.24 73.688L401.984 71.256H403.2L402.928 73.688L404.88 72.28Z" fill="#DB4444"/>
</g>
<rect x="546" y="52" width="235" height="50" rx="4" fill="#F5F5F5"/>
<g opacity="0.5">
<path d="M571.04 71.848L567.408 78.792V83H565.952V78.792L562.304 71.848H563.92L566.672 77.496L569.424 71.848H571.04ZM576.4 83.144C575.578 83.144 574.832 82.9573 574.16 82.584C573.498 82.2107 572.976 81.6827 572.592 81C572.218 80.3067 572.032 79.5067 572.032 78.6C572.032 77.704 572.224 76.9147 572.608 76.232C573.002 75.5387 573.536 75.0107 574.208 74.648C574.88 74.2747 575.632 74.088 576.464 74.088C577.296 74.088 578.048 74.2747 578.72 74.648C579.392 75.0107 579.92 75.5333 580.304 76.216C580.698 76.8987 580.896 77.6933 580.896 78.6C580.896 79.5067 580.693 80.3067 580.288 81C579.893 81.6827 579.354 82.2107 578.672 82.584C577.989 82.9573 577.232 83.144 576.4 83.144ZM576.4 81.864C576.922 81.864 577.413 81.7413 577.872 81.496C578.33 81.2507 578.698 80.8827 578.976 80.392C579.264 79.9013 579.408 79.304 579.408 78.6C579.408 77.896 579.269 77.2987 578.992 76.808C578.714 76.3173 578.352 75.9547 577.904 75.72C577.456 75.4747 576.97 75.352 576.448 75.352C575.914 75.352 575.424 75.4747 574.976 75.72C574.538 75.9547 574.186 76.3173 573.92 76.808C573.653 77.2987 573.52 77.896 573.52 78.6C573.52 79.3147 573.648 79.9173 573.904 80.408C574.17 80.8987 574.522 81.2667 574.96 81.512C575.397 81.7467 575.877 81.864 576.4 81.864ZM590.586 74.232V83H589.13V81.704C588.853 82.152 588.463 82.504 587.962 82.76C587.471 83.0053 586.927 83.128 586.33 83.128C585.647 83.128 585.034 82.9893 584.49 82.712C583.946 82.424 583.514 81.9973 583.194 81.432C582.885 80.8667 582.73 80.1787 582.73 79.368V74.232H584.17V79.176C584.17 80.04 584.389 80.7067 584.826 81.176C585.263 81.6347 585.861 81.864 586.618 81.864C587.397 81.864 588.01 81.624 588.458 81.144C588.906 80.664 589.13 79.9653 589.13 79.048V74.232H590.586ZM594.501 75.656C594.757 75.1547 595.119 74.7653 595.589 74.488C596.069 74.2107 596.65 74.072 597.333 74.072V75.576H596.949C595.317 75.576 594.501 76.4613 594.501 78.232V83H593.045V74.232H594.501V75.656ZM610.735 75.112C610.735 76.04 610.415 76.8133 609.775 77.432C609.146 78.04 608.18 78.344 606.879 78.344H604.735V83H603.279V71.848H606.879C608.138 71.848 609.092 72.152 609.743 72.76C610.404 73.368 610.735 74.152 610.735 75.112ZM606.879 77.144C607.69 77.144 608.287 76.968 608.671 76.616C609.055 76.264 609.247 75.7627 609.247 75.112C609.247 73.736 608.458 73.048 606.879 73.048H604.735V77.144H606.879ZM616.897 74.072C617.558 74.072 618.155 74.216 618.689 74.504C619.222 74.7813 619.638 75.2027 619.937 75.768C620.246 76.3333 620.401 77.0213 620.401 77.832V83H618.961V78.04C618.961 77.1653 618.742 76.4987 618.305 76.04C617.867 75.5707 617.27 75.336 616.513 75.336C615.745 75.336 615.131 75.576 614.673 76.056C614.225 76.536 614.001 77.2347 614.001 78.152V83H612.545V71.16H614.001V75.48C614.289 75.032 614.683 74.6853 615.185 74.44C615.697 74.1947 616.267 74.072 616.897 74.072ZM626.603 83.144C625.782 83.144 625.035 82.9573 624.363 82.584C623.702 82.2107 623.179 81.6827 622.795 81C622.422 80.3067 622.235 79.5067 622.235 78.6C622.235 77.704 622.427 76.9147 622.811 76.232C623.206 75.5387 623.739 75.0107 624.411 74.648C625.083 74.2747 625.835 74.088 626.667 74.088C627.499 74.088 628.251 74.2747 628.923 74.648C629.595 75.0107 630.123 75.5333 630.507 76.216C630.902 76.8987 631.099 77.6933 631.099 78.6C631.099 79.5067 630.896 80.3067 630.491 81C630.096 81.6827 629.558 82.2107 628.875 82.584C628.192 82.9573 627.435 83.144 626.603 83.144ZM626.603 81.864C627.126 81.864 627.616 81.7413 628.075 81.496C628.534 81.2507 628.902 80.8827 629.179 80.392C629.467 79.9013 629.611 79.304 629.611 78.6C629.611 77.896 629.472 77.2987 629.195 76.808C628.918 76.3173 628.555 75.9547 628.107 75.72C627.659 75.4747 627.174 75.352 626.651 75.352C626.118 75.352 625.627 75.4747 625.179 75.72C624.742 75.9547 624.39 76.3173 624.123 76.808C623.856 77.2987 623.723 77.896 623.723 78.6C623.723 79.3147 623.851 79.9173 624.107 80.408C624.374 80.8987 624.726 81.2667 625.163 81.512C625.6 81.7467 626.08 81.864 626.603 81.864ZM637.285 74.072C638.352 74.072 639.216 74.3973 639.877 75.048C640.539 75.688 640.869 76.616 640.869 77.832V83H639.429V78.04C639.429 77.1653 639.211 76.4987 638.773 76.04C638.336 75.5707 637.739 75.336 636.981 75.336C636.213 75.336 635.6 75.576 635.141 76.056C634.693 76.536 634.469 77.2347 634.469 78.152V83H633.013V74.232H634.469V75.48C634.757 75.032 635.147 74.6853 635.637 74.44C636.139 74.1947 636.688 74.072 637.285 74.072ZM651.248 78.28C651.248 78.5573 651.232 78.8507 651.2 79.16H644.192C644.245 80.024 644.538 80.7013 645.072 81.192C645.616 81.672 646.272 81.912 647.04 81.912C647.669 81.912 648.192 81.768 648.608 81.48C649.034 81.1813 649.333 80.7867 649.504 80.296H651.072C650.837 81.1387 650.368 81.8267 649.664 82.36C648.96 82.8827 648.085 83.144 647.04 83.144C646.208 83.144 645.461 82.9573 644.8 82.584C644.149 82.2107 643.637 81.6827 643.264 81C642.89 80.3067 642.704 79.5067 642.704 78.6C642.704 77.6933 642.885 76.8987 643.248 76.216C643.61 75.5333 644.117 75.0107 644.768 74.648C645.429 74.2747 646.186 74.088 647.04 74.088C647.872 74.088 648.608 74.2693 649.248 74.632C649.888 74.9947 650.378 75.496 650.72 76.136C651.072 76.7653 651.248 77.48 651.248 78.28ZM649.744 77.976C649.744 77.4213 649.621 76.9467 649.376 76.552C649.13 76.1467 648.794 75.8427 648.368 75.64C647.952 75.4267 647.488 75.32 646.976 75.32C646.24 75.32 645.61 75.5547 645.088 76.024C644.576 76.4933 644.282 77.144 644.208 77.976H649.744Z" fill="black"/>
<path d="M662.395 72.28L662.971 73.32L660.747 74.248L662.987 75.16L662.379 76.232L660.443 74.824L660.699 77.24H659.499L659.739 74.824L657.803 76.248L657.179 75.16L659.403 74.232L657.179 73.336L657.771 72.264L659.755 73.688L659.499 71.256H660.715L660.443 73.688L662.395 72.28Z" fill="#DB4444"/>
</g>
<rect x="44" y="134" width="737" height="207" rx="4" fill="#F5F5F5"/>
<path opacity="0.5" d="M69.04 153.848L65.408 160.792V165H63.952V160.792L60.304 153.848H61.92L64.672 159.496L67.424 153.848H69.04ZM74.3998 165.144C73.5784 165.144 72.8318 164.957 72.1598 164.584C71.4984 164.211 70.9758 163.683 70.5918 163C70.2184 162.307 70.0318 161.507 70.0318 160.6C70.0318 159.704 70.2238 158.915 70.6078 158.232C71.0024 157.539 71.5358 157.011 72.2078 156.648C72.8798 156.275 73.6318 156.088 74.4638 156.088C75.2958 156.088 76.0478 156.275 76.7198 156.648C77.3918 157.011 77.9198 157.533 78.3038 158.216C78.6984 158.899 78.8958 159.693 78.8958 160.6C78.8958 161.507 78.6931 162.307 78.2878 163C77.8931 163.683 77.3544 164.211 76.6718 164.584C75.9891 164.957 75.2318 165.144 74.3998 165.144ZM74.3998 163.864C74.9224 163.864 75.4131 163.741 75.8718 163.496C76.3304 163.251 76.6984 162.883 76.9758 162.392C77.2638 161.901 77.4078 161.304 77.4078 160.6C77.4078 159.896 77.2691 159.299 76.9918 158.808C76.7144 158.317 76.3518 157.955 75.9038 157.72C75.4558 157.475 74.9704 157.352 74.4478 157.352C73.9144 157.352 73.4238 157.475 72.9758 157.72C72.5384 157.955 72.1864 158.317 71.9198 158.808C71.6531 159.299 71.5198 159.896 71.5198 160.6C71.5198 161.315 71.6478 161.917 71.9038 162.408C72.1704 162.899 72.5224 163.267 72.9598 163.512C73.3971 163.747 73.8771 163.864 74.3998 163.864ZM88.5861 156.232V165H87.1301V163.704C86.8528 164.152 86.4635 164.504 85.9621 164.76C85.4715 165.005 84.9275 165.128 84.3301 165.128C83.6475 165.128 83.0341 164.989 82.4901 164.712C81.9461 164.424 81.5141 163.997 81.1941 163.432C80.8848 162.867 80.7301 162.179 80.7301 161.368V156.232H82.1701V161.176C82.1701 162.04 82.3888 162.707 82.8261 163.176C83.2635 163.635 83.8608 163.864 84.6181 163.864C85.3968 163.864 86.0101 163.624 86.4581 163.144C86.9061 162.664 87.1301 161.965 87.1301 161.048V156.232H88.5861ZM92.5005 157.656C92.7565 157.155 93.1192 156.765 93.5885 156.488C94.0685 156.211 94.6498 156.072 95.3325 156.072V157.576H94.9485C93.3165 157.576 92.5005 158.461 92.5005 160.232V165H91.0445V156.232H92.5005V157.656ZM112.591 153.928V165H111.135V156.744L107.455 165H106.431L102.735 156.728V165H101.279V153.928H102.847L106.943 163.08L111.039 153.928H112.591ZM114.516 160.584C114.516 159.688 114.697 158.904 115.06 158.232C115.423 157.549 115.919 157.021 116.548 156.648C117.188 156.275 117.897 156.088 118.676 156.088C119.444 156.088 120.111 156.253 120.676 156.584C121.241 156.915 121.663 157.331 121.94 157.832V156.232H123.412V165H121.94V163.368C121.652 163.88 121.22 164.307 120.644 164.648C120.079 164.979 119.417 165.144 118.66 165.144C117.881 165.144 117.177 164.952 116.548 164.568C115.919 164.184 115.423 163.645 115.06 162.952C114.697 162.259 114.516 161.469 114.516 160.584ZM121.94 160.6C121.94 159.939 121.807 159.363 121.54 158.872C121.273 158.381 120.911 158.008 120.452 157.752C120.004 157.485 119.508 157.352 118.964 157.352C118.42 157.352 117.924 157.48 117.476 157.736C117.028 157.992 116.671 158.365 116.404 158.856C116.137 159.347 116.004 159.923 116.004 160.584C116.004 161.256 116.137 161.843 116.404 162.344C116.671 162.835 117.028 163.213 117.476 163.48C117.924 163.736 118.42 163.864 118.964 163.864C119.508 163.864 120.004 163.736 120.452 163.48C120.911 163.213 121.273 162.835 121.54 162.344C121.807 161.843 121.94 161.261 121.94 160.6ZM128.977 165.144C128.305 165.144 127.702 165.032 127.169 164.808C126.635 164.573 126.214 164.253 125.905 163.848C125.595 163.432 125.425 162.957 125.393 162.424H126.897C126.939 162.861 127.142 163.219 127.505 163.496C127.878 163.773 128.363 163.912 128.961 163.912C129.515 163.912 129.953 163.789 130.273 163.544C130.593 163.299 130.753 162.989 130.753 162.616C130.753 162.232 130.582 161.949 130.241 161.768C129.899 161.576 129.371 161.389 128.657 161.208C128.006 161.037 127.473 160.867 127.057 160.696C126.651 160.515 126.299 160.253 126.001 159.912C125.713 159.56 125.569 159.101 125.569 158.536C125.569 158.088 125.702 157.677 125.969 157.304C126.235 156.931 126.614 156.637 127.105 156.424C127.595 156.2 128.155 156.088 128.785 156.088C129.755 156.088 130.539 156.333 131.137 156.824C131.734 157.315 132.054 157.987 132.097 158.84H130.641C130.609 158.381 130.422 158.013 130.081 157.736C129.75 157.459 129.302 157.32 128.737 157.32C128.214 157.32 127.798 157.432 127.489 157.656C127.179 157.88 127.025 158.173 127.025 158.536C127.025 158.824 127.115 159.064 127.297 159.256C127.489 159.437 127.723 159.587 128.001 159.704C128.289 159.811 128.683 159.933 129.185 160.072C129.814 160.243 130.326 160.413 130.721 160.584C131.115 160.744 131.451 160.989 131.729 161.32C132.017 161.651 132.166 162.083 132.177 162.616C132.177 163.096 132.043 163.528 131.777 163.912C131.51 164.296 131.131 164.6 130.641 164.824C130.161 165.037 129.606 165.144 128.977 165.144ZM137.336 165.144C136.664 165.144 136.061 165.032 135.528 164.808C134.995 164.573 134.573 164.253 134.264 163.848C133.955 163.432 133.784 162.957 133.752 162.424H135.256C135.299 162.861 135.501 163.219 135.864 163.496C136.237 163.773 136.723 163.912 137.32 163.912C137.875 163.912 138.312 163.789 138.632 163.544C138.952 163.299 139.112 162.989 139.112 162.616C139.112 162.232 138.941 161.949 138.6 161.768C138.259 161.576 137.731 161.389 137.016 161.208C136.365 161.037 135.832 160.867 135.416 160.696C135.011 160.515 134.659 160.253 134.36 159.912C134.072 159.56 133.928 159.101 133.928 158.536C133.928 158.088 134.061 157.677 134.328 157.304C134.595 156.931 134.973 156.637 135.464 156.424C135.955 156.2 136.515 156.088 137.144 156.088C138.115 156.088 138.899 156.333 139.496 156.824C140.093 157.315 140.413 157.987 140.456 158.84H139C138.968 158.381 138.781 158.013 138.44 157.736C138.109 157.459 137.661 157.32 137.096 157.32C136.573 157.32 136.157 157.432 135.848 157.656C135.539 157.88 135.384 158.173 135.384 158.536C135.384 158.824 135.475 159.064 135.656 159.256C135.848 159.437 136.083 159.587 136.36 159.704C136.648 159.811 137.043 159.933 137.544 160.072C138.173 160.243 138.685 160.413 139.08 160.584C139.475 160.744 139.811 160.989 140.088 161.32C140.376 161.651 140.525 162.083 140.536 162.616C140.536 163.096 140.403 163.528 140.136 163.912C139.869 164.296 139.491 164.6 139 164.824C138.52 165.037 137.965 165.144 137.336 165.144ZM142.047 160.584C142.047 159.688 142.229 158.904 142.591 158.232C142.954 157.549 143.45 157.021 144.079 156.648C144.719 156.275 145.429 156.088 146.207 156.088C146.975 156.088 147.642 156.253 148.207 156.584C148.773 156.915 149.194 157.331 149.471 157.832V156.232H150.943V165H149.471V163.368C149.183 163.88 148.751 164.307 148.175 164.648C147.61 164.979 146.949 165.144 146.191 165.144C145.413 165.144 144.709 164.952 144.079 164.568C143.45 164.184 142.954 163.645 142.591 162.952C142.229 162.259 142.047 161.469 142.047 160.584ZM149.471 160.6C149.471 159.939 149.338 159.363 149.071 158.872C148.805 158.381 148.442 158.008 147.983 157.752C147.535 157.485 147.039 157.352 146.495 157.352C145.951 157.352 145.455 157.48 145.007 157.736C144.559 157.992 144.202 158.365 143.935 158.856C143.669 159.347 143.535 159.923 143.535 160.584C143.535 161.256 143.669 161.843 143.935 162.344C144.202 162.835 144.559 163.213 145.007 163.48C145.455 163.736 145.951 163.864 146.495 163.864C147.039 163.864 147.535 163.736 147.983 163.48C148.442 163.213 148.805 162.835 149.071 162.344C149.338 161.843 149.471 161.261 149.471 160.6ZM157.02 156.088C157.777 156.088 158.439 156.253 159.004 156.584C159.58 156.915 160.007 157.331 160.284 157.832V156.232H161.756V165.192C161.756 165.992 161.585 166.701 161.244 167.32C160.903 167.949 160.412 168.44 159.772 168.792C159.143 169.144 158.407 169.32 157.564 169.32C156.412 169.32 155.452 169.048 154.684 168.504C153.916 167.96 153.463 167.219 153.324 166.28H154.764C154.924 166.813 155.255 167.24 155.756 167.56C156.257 167.891 156.86 168.056 157.564 168.056C158.364 168.056 159.015 167.805 159.516 167.304C160.028 166.803 160.284 166.099 160.284 165.192V163.352C159.996 163.864 159.569 164.291 159.004 164.632C158.439 164.973 157.777 165.144 157.02 165.144C156.241 165.144 155.532 164.952 154.892 164.568C154.263 164.184 153.767 163.645 153.404 162.952C153.041 162.259 152.86 161.469 152.86 160.584C152.86 159.688 153.041 158.904 153.404 158.232C153.767 157.549 154.263 157.021 154.892 156.648C155.532 156.275 156.241 156.088 157.02 156.088ZM160.284 160.6C160.284 159.939 160.151 159.363 159.884 158.872C159.617 158.381 159.255 158.008 158.796 157.752C158.348 157.485 157.852 157.352 157.308 157.352C156.764 157.352 156.268 157.48 155.82 157.736C155.372 157.992 155.015 158.365 154.748 158.856C154.481 159.347 154.348 159.923 154.348 160.584C154.348 161.256 154.481 161.843 154.748 162.344C155.015 162.835 155.372 163.213 155.82 163.48C156.268 163.736 156.764 163.864 157.308 163.864C157.852 163.864 158.348 163.736 158.796 163.48C159.255 163.213 159.617 162.835 159.884 162.344C160.151 161.843 160.284 161.261 160.284 160.6ZM172.216 160.28C172.216 160.557 172.2 160.851 172.168 161.16H165.16C165.214 162.024 165.507 162.701 166.04 163.192C166.584 163.672 167.24 163.912 168.008 163.912C168.638 163.912 169.16 163.768 169.576 163.48C170.003 163.181 170.302 162.787 170.472 162.296H172.04C171.806 163.139 171.336 163.827 170.632 164.36C169.928 164.883 169.054 165.144 168.008 165.144C167.176 165.144 166.43 164.957 165.768 164.584C165.118 164.211 164.606 163.683 164.232 163C163.859 162.307 163.672 161.507 163.672 160.6C163.672 159.693 163.854 158.899 164.216 158.216C164.579 157.533 165.086 157.011 165.736 156.648C166.398 156.275 167.155 156.088 168.008 156.088C168.84 156.088 169.576 156.269 170.216 156.632C170.856 156.995 171.347 157.496 171.688 158.136C172.04 158.765 172.216 159.48 172.216 160.28ZM170.712 159.976C170.712 159.421 170.59 158.947 170.344 158.552C170.099 158.147 169.763 157.843 169.336 157.64C168.92 157.427 168.456 157.32 167.944 157.32C167.208 157.32 166.579 157.555 166.056 158.024C165.544 158.493 165.251 159.144 165.176 159.976H170.712Z" fill="black"/>
<rect x="566" y="373" width="215" height="56" rx="4" fill="#DB4444"/>
<path d="M618.864 407.112C618.117 407.112 617.445 406.984 616.848 406.728C616.251 406.461 615.781 406.088 615.44 405.608C615.099 405.128 614.928 404.568 614.928 403.928H616.88C616.923 404.408 617.109 404.803 617.44 405.112C617.781 405.421 618.256 405.576 618.864 405.576C619.493 405.576 619.984 405.427 620.336 405.128C620.688 404.819 620.864 404.424 620.864 403.944C620.864 403.571 620.752 403.267 620.528 403.032C620.315 402.797 620.043 402.616 619.712 402.488C619.392 402.36 618.944 402.221 618.368 402.072C617.643 401.88 617.051 401.688 616.592 401.496C616.144 401.293 615.76 400.984 615.44 400.568C615.12 400.152 614.96 399.597 614.96 398.904C614.96 398.264 615.12 397.704 615.44 397.224C615.76 396.744 616.208 396.376 616.784 396.12C617.36 395.864 618.027 395.736 618.784 395.736C619.861 395.736 620.741 396.008 621.424 396.552C622.117 397.085 622.501 397.821 622.576 398.76H620.56C620.528 398.355 620.336 398.008 619.984 397.72C619.632 397.432 619.168 397.288 618.592 397.288C618.069 397.288 617.643 397.421 617.312 397.688C616.981 397.955 616.816 398.339 616.816 398.84C616.816 399.181 616.917 399.464 617.12 399.688C617.333 399.901 617.6 400.072 617.92 400.2C618.24 400.328 618.677 400.467 619.232 400.616C619.968 400.819 620.565 401.021 621.024 401.224C621.493 401.427 621.888 401.741 622.208 402.168C622.539 402.584 622.704 403.144 622.704 403.848C622.704 404.413 622.549 404.947 622.24 405.448C621.941 405.949 621.499 406.355 620.912 406.664C620.336 406.963 619.653 407.112 618.864 407.112ZM632.936 402.376C632.936 402.707 632.915 403.005 632.872 403.272H626.136C626.19 403.976 626.451 404.541 626.92 404.968C627.39 405.395 627.966 405.608 628.648 405.608C629.63 405.608 630.323 405.197 630.728 404.376H632.696C632.43 405.187 631.944 405.853 631.24 406.376C630.547 406.888 629.683 407.144 628.648 407.144C627.806 407.144 627.048 406.957 626.376 406.584C625.715 406.2 625.192 405.667 624.808 404.984C624.435 404.291 624.248 403.491 624.248 402.584C624.248 401.677 624.43 400.883 624.792 400.2C625.166 399.507 625.683 398.973 626.344 398.6C627.016 398.227 627.784 398.04 628.648 398.04C629.48 398.04 630.222 398.221 630.872 398.584C631.523 398.947 632.03 399.459 632.392 400.12C632.755 400.771 632.936 401.523 632.936 402.376ZM631.032 401.8C631.022 401.128 630.782 400.589 630.312 400.184C629.843 399.779 629.262 399.576 628.568 399.576C627.939 399.576 627.4 399.779 626.952 400.184C626.504 400.579 626.238 401.117 626.152 401.8H631.032ZM639.179 398.04C639.873 398.04 640.491 398.184 641.035 398.472C641.59 398.76 642.022 399.187 642.331 399.752C642.641 400.317 642.795 401 642.795 401.8V407H640.987V402.072C640.987 401.283 640.79 400.68 640.395 400.264C640.001 399.837 639.462 399.624 638.779 399.624C638.097 399.624 637.553 399.837 637.147 400.264C636.753 400.68 636.555 401.283 636.555 402.072V407H634.731V398.184H636.555V399.192C636.854 398.829 637.233 398.547 637.691 398.344C638.161 398.141 638.657 398.04 639.179 398.04ZM644.514 402.552C644.514 401.667 644.695 400.883 645.058 400.2C645.431 399.517 645.933 398.989 646.562 398.616C647.202 398.232 647.911 398.04 648.69 398.04C649.266 398.04 649.831 398.168 650.386 398.424C650.951 398.669 651.399 399 651.73 399.416V395.16H653.57V407H651.73V405.672C651.431 406.099 651.015 406.451 650.482 406.728C649.959 407.005 649.357 407.144 648.674 407.144C647.906 407.144 647.202 406.952 646.562 406.568C645.933 406.173 645.431 405.629 645.058 404.936C644.695 404.232 644.514 403.437 644.514 402.552ZM651.73 402.584C651.73 401.976 651.602 401.448 651.346 401C651.101 400.552 650.775 400.211 650.37 399.976C649.965 399.741 649.527 399.624 649.058 399.624C648.589 399.624 648.151 399.741 647.746 399.976C647.341 400.2 647.01 400.536 646.754 400.984C646.509 401.421 646.386 401.944 646.386 402.552C646.386 403.16 646.509 403.693 646.754 404.152C647.01 404.611 647.341 404.963 647.746 405.208C648.162 405.443 648.599 405.56 649.058 405.56C649.527 405.56 649.965 405.443 650.37 405.208C650.775 404.973 651.101 404.632 651.346 404.184C651.602 403.725 651.73 403.192 651.73 402.584ZM671.834 395.88V407H670.01V399.384L666.618 407H665.354L661.946 399.384V407H660.122V395.88H662.09L665.994 404.6L669.882 395.88H671.834ZM673.623 402.552C673.623 401.667 673.805 400.883 674.167 400.2C674.541 399.517 675.042 398.989 675.671 398.616C676.311 398.232 677.015 398.04 677.783 398.04C678.477 398.04 679.079 398.179 679.591 398.456C680.114 398.723 680.53 399.059 680.839 399.464V398.184H682.679V407H680.839V405.688C680.53 406.104 680.109 406.451 679.575 406.728C679.042 407.005 678.434 407.144 677.751 407.144C676.994 407.144 676.301 406.952 675.671 406.568C675.042 406.173 674.541 405.629 674.167 404.936C673.805 404.232 673.623 403.437 673.623 402.552ZM680.839 402.584C680.839 401.976 680.711 401.448 680.455 401C680.21 400.552 679.885 400.211 679.479 399.976C679.074 399.741 678.637 399.624 678.167 399.624C677.698 399.624 677.261 399.741 676.855 399.976C676.45 400.2 676.119 400.536 675.863 400.984C675.618 401.421 675.495 401.944 675.495 402.552C675.495 403.16 675.618 403.693 675.863 404.152C676.119 404.611 676.45 404.963 676.855 405.208C677.271 405.443 677.709 405.56 678.167 405.56C678.637 405.56 679.074 405.443 679.479 405.208C679.885 404.973 680.21 404.632 680.455 404.184C680.711 403.725 680.839 403.192 680.839 402.584ZM688.275 407.144C687.582 407.144 686.958 407.021 686.403 406.776C685.859 406.52 685.427 406.179 685.107 405.752C684.787 405.315 684.616 404.829 684.595 404.296H686.483C686.515 404.669 686.691 404.984 687.011 405.24C687.342 405.485 687.752 405.608 688.243 405.608C688.755 405.608 689.15 405.512 689.427 405.32C689.715 405.117 689.859 404.861 689.859 404.552C689.859 404.221 689.699 403.976 689.379 403.816C689.07 403.656 688.574 403.48 687.891 403.288C687.23 403.107 686.691 402.931 686.275 402.76C685.859 402.589 685.496 402.328 685.187 401.976C684.888 401.624 684.739 401.16 684.739 400.584C684.739 400.115 684.878 399.688 685.155 399.304C685.432 398.909 685.827 398.6 686.339 398.376C686.862 398.152 687.459 398.04 688.131 398.04C689.134 398.04 689.939 398.296 690.547 398.808C691.166 399.309 691.496 399.997 691.539 400.872H689.715C689.683 400.477 689.523 400.163 689.235 399.928C688.947 399.693 688.558 399.576 688.067 399.576C687.587 399.576 687.219 399.667 686.963 399.848C686.707 400.029 686.579 400.269 686.579 400.568C686.579 400.803 686.664 401 686.835 401.16C687.006 401.32 687.214 401.448 687.459 401.544C687.704 401.629 688.067 401.741 688.547 401.88C689.187 402.051 689.71 402.227 690.115 402.408C690.531 402.579 690.888 402.835 691.187 403.176C691.486 403.517 691.64 403.971 691.651 404.536C691.651 405.037 691.512 405.485 691.235 405.88C690.958 406.275 690.563 406.584 690.051 406.808C689.55 407.032 688.958 407.144 688.275 407.144ZM696.822 407.144C696.129 407.144 695.505 407.021 694.95 406.776C694.406 406.52 693.974 406.179 693.654 405.752C693.334 405.315 693.163 404.829 693.142 404.296H695.03C695.062 404.669 695.238 404.984 695.558 405.24C695.889 405.485 696.299 405.608 696.79 405.608C697.302 405.608 697.697 405.512 697.974 405.32C698.262 405.117 698.406 404.861 698.406 404.552C698.406 404.221 698.246 403.976 697.926 403.816C697.617 403.656 697.121 403.48 696.438 403.288C695.777 403.107 695.238 402.931 694.822 402.76C694.406 402.589 694.043 402.328 693.734 401.976C693.435 401.624 693.286 401.16 693.286 400.584C693.286 400.115 693.425 399.688 693.702 399.304C693.979 398.909 694.374 398.6 694.886 398.376C695.409 398.152 696.006 398.04 696.678 398.04C697.681 398.04 698.486 398.296 699.094 398.808C699.713 399.309 700.043 399.997 700.086 400.872H698.262C698.23 400.477 698.07 400.163 697.782 399.928C697.494 399.693 697.105 399.576 696.614 399.576C696.134 399.576 695.766 399.667 695.51 399.848C695.254 400.029 695.126 400.269 695.126 400.568C695.126 400.803 695.211 401 695.382 401.16C695.553 401.32 695.761 401.448 696.006 401.544C696.251 401.629 696.614 401.741 697.094 401.88C697.734 402.051 698.257 402.227 698.662 402.408C699.078 402.579 699.435 402.835 699.734 403.176C700.033 403.517 700.187 403.971 700.198 404.536C700.198 405.037 700.059 405.485 699.782 405.88C699.505 406.275 699.11 406.584 698.598 406.808C698.097 407.032 697.505 407.144 696.822 407.144ZM701.561 402.552C701.561 401.667 701.742 400.883 702.105 400.2C702.478 399.517 702.979 398.989 703.609 398.616C704.249 398.232 704.953 398.04 705.721 398.04C706.414 398.04 707.017 398.179 707.529 398.456C708.051 398.723 708.467 399.059 708.777 399.464V398.184H710.617V407H708.777V405.688C708.467 406.104 708.046 406.451 707.513 406.728C706.979 407.005 706.371 407.144 705.689 407.144C704.931 407.144 704.238 406.952 703.609 406.568C702.979 406.173 702.478 405.629 702.105 404.936C701.742 404.232 701.561 403.437 701.561 402.552ZM708.777 402.584C708.777 401.976 708.649 401.448 708.393 401C708.147 400.552 707.822 400.211 707.417 399.976C707.011 399.741 706.574 399.624 706.105 399.624C705.635 399.624 705.198 399.741 704.793 399.976C704.387 400.2 704.057 400.536 703.801 400.984C703.555 401.421 703.433 401.944 703.433 402.552C703.433 403.16 703.555 403.693 703.801 404.152C704.057 404.611 704.387 404.963 704.793 405.208C705.209 405.443 705.646 405.56 706.105 405.56C706.574 405.56 707.011 405.443 707.417 405.208C707.822 404.973 708.147 404.632 708.393 404.184C708.649 403.725 708.777 403.192 708.777 402.584ZM716.565 398.04C717.247 398.04 717.85 398.179 718.373 398.456C718.906 398.723 719.322 399.059 719.621 399.464V398.184H721.461V407.144C721.461 407.955 721.29 408.675 720.949 409.304C720.607 409.944 720.111 410.445 719.461 410.808C718.821 411.171 718.053 411.352 717.157 411.352C715.962 411.352 714.97 411.069 714.181 410.504C713.391 409.949 712.943 409.192 712.837 408.232H714.645C714.783 408.691 715.077 409.059 715.525 409.336C715.983 409.624 716.527 409.768 717.157 409.768C717.893 409.768 718.485 409.544 718.933 409.096C719.391 408.648 719.621 407.997 719.621 407.144V405.672C719.311 406.088 718.89 406.44 718.357 406.728C717.834 407.005 717.237 407.144 716.565 407.144C715.797 407.144 715.093 406.952 714.453 406.568C713.823 406.173 713.322 405.629 712.949 404.936C712.586 404.232 712.405 403.437 712.405 402.552C712.405 401.667 712.586 400.883 712.949 400.2C713.322 399.517 713.823 398.989 714.453 398.616C715.093 398.232 715.797 398.04 716.565 398.04ZM719.621 402.584C719.621 401.976 719.493 401.448 719.237 401C718.991 400.552 718.666 400.211 718.261 399.976C717.855 399.741 717.418 399.624 716.949 399.624C716.479 399.624 716.042 399.741 715.637 399.976C715.231 400.2 714.901 400.536 714.645 400.984C714.399 401.421 714.277 401.944 714.277 402.552C714.277 403.16 714.399 403.693 714.645 404.152C714.901 404.611 715.231 404.963 715.637 405.208C716.053 405.443 716.49 405.56 716.949 405.56C717.418 405.56 717.855 405.443 718.261 405.208C718.666 404.973 718.991 404.632 719.237 404.184C719.493 403.725 719.621 403.192 719.621 402.584ZM731.936 402.376C731.936 402.707 731.915 403.005 731.872 403.272H725.136C725.19 403.976 725.451 404.541 725.92 404.968C726.39 405.395 726.966 405.608 727.648 405.608C728.63 405.608 729.323 405.197 729.728 404.376H731.696C731.43 405.187 730.944 405.853 730.24 406.376C729.547 406.888 728.683 407.144 727.648 407.144C726.806 407.144 726.048 406.957 725.376 406.584C724.715 406.2 724.192 405.667 723.808 404.984C723.435 404.291 723.248 403.491 723.248 402.584C723.248 401.677 723.43 400.883 723.792 400.2C724.166 399.507 724.683 398.973 725.344 398.6C726.016 398.227 726.784 398.04 727.648 398.04C728.48 398.04 729.222 398.221 729.872 398.584C730.523 398.947 731.03 399.459 731.392 400.12C731.755 400.771 731.936 401.523 731.936 402.376ZM730.032 401.8C730.022 401.128 729.782 400.589 729.312 400.184C728.843 399.779 728.262 399.576 727.568 399.576C726.939 399.576 726.4 399.779 725.952 400.184C725.504 400.579 725.238 401.117 725.152 401.8H730.032Z" fill="#FAFAFA"/>
</g>
<defs>
<filter id="filter0_d_210_4481" x="0" y="0" width="826" height="483" filterUnits="userSpaceOnUse" color-interpolation-filters="sRGB">
<feFlood flood-opacity="0" result="BackgroundImageFix"/>
<feColorMatrix in="SourceAlpha" type="matrix" values="0 0 0 0 0 0 0 0 0 0 0 0 0 0 0 0 0 0 127 0" result="hardAlpha"/>
<feOffset dy="1"/>
<feGaussianBlur stdDeviation="6.5"/>
<feComposite in2="hardAlpha" operator="out"/>
<feColorMatrix type="matrix" values="0 0 0 0 0 0 0 0 0 0 0 0 0 0 0 0 0 0 0.05 0"/>
<feBlend mode="normal" in2="BackgroundImageFix" result="effect1_dropShadow_210_4481"/>
<feBlend mode="normal" in="SourceGraphic" in2="effect1_dropShadow_210_4481" result="shape"/>
</filter>
</defs>
</svg>
