<svg width="159" height="56" viewBox="0 0 159 56" fill="none" xmlns="http://www.w3.org/2000/svg">
<rect width="159" height="56" rx="4" fill="#DB4444"/>
<path d="M58.784 22.88L54.608 34H52.496L48.304 22.88H50.256L53.552 32.128L56.864 22.88H58.784ZM61.2374 24.016C60.9067 24.016 60.6294 23.904 60.4054 23.68C60.1814 23.456 60.0694 23.1787 60.0694 22.848C60.0694 22.5173 60.1814 22.24 60.4054 22.016C60.6294 21.792 60.9067 21.68 61.2374 21.68C61.5574 21.68 61.8294 21.792 62.0534 22.016C62.2774 22.24 62.3894 22.5173 62.3894 22.848C62.3894 23.1787 62.2774 23.456 62.0534 23.68C61.8294 23.904 61.5574 24.016 61.2374 24.016ZM62.1334 25.184V34H60.3094V25.184H62.1334ZM72.6081 29.376C72.6081 29.7067 72.5868 30.0053 72.5441 30.272H65.8081C65.8615 30.976 66.1228 31.5413 66.5921 31.968C67.0615 32.3947 67.6375 32.608 68.3201 32.608C69.3015 32.608 69.9948 32.1973 70.4001 31.376H72.3681C72.1015 32.1867 71.6161 32.8533 70.9121 33.376C70.2188 33.888 69.3548 34.144 68.3201 34.144C67.4775 34.144 66.7201 33.9573 66.0481 33.584C65.3868 33.2 64.8641 32.6667 64.4801 31.984C64.1068 31.2907 63.9201 30.4907 63.9201 29.584C63.9201 28.6773 64.1015 27.8827 64.4641 27.2C64.8375 26.5067 65.3548 25.9733 66.0161 25.6C66.6881 25.2267 67.4561 25.04 68.3201 25.04C69.1521 25.04 69.8935 25.2213 70.5441 25.584C71.1948 25.9467 71.7015 26.4587 72.0641 27.12C72.4268 27.7707 72.6081 28.5227 72.6081 29.376ZM70.7041 28.8C70.6935 28.128 70.4535 27.5893 69.9841 27.184C69.5148 26.7787 68.9335 26.576 68.2401 26.576C67.6108 26.576 67.0721 26.7787 66.6241 27.184C66.1761 27.5787 65.9095 28.1173 65.8241 28.8H70.7041ZM86.2431 25.184L83.5071 34H81.5871L79.8111 27.488L78.0351 34H76.1151L73.3631 25.184H75.2191L77.0591 32.272L78.9311 25.184H80.8351L82.6271 32.24L84.4511 25.184H86.2431ZM98.4665 31.728H93.8105L93.0105 34H91.1065L95.0905 22.864H97.2025L101.187 34H99.2665L98.4665 31.728ZM97.9545 30.24L96.1465 25.072L94.3225 30.24H97.9545ZM104.743 22.16V34H102.919V22.16H104.743ZM108.962 22.16V34H107.138V22.16H108.962Z" fill="#FAFAFA"/>
</svg>
